<?xml version="1.0" standalone="no"?>
<!DOCTYPE svg PUBLIC "-//W3C//DTD SVG 20010904//EN"
 "http://www.w3.org/TR/2001/REC-SVG-20010904/DTD/svg10.dtd">
<svg version="1.0" xmlns="http://www.w3.org/2000/svg"
 width="500.000000pt" height="500.000000pt" viewBox="0 0 500.000000 500.000000"
 preserveAspectRatio="xMidYMid meet">

<g transform="translate(0.000000,500.000000) scale(0.100000,-0.100000)"
fill="#000000" stroke="none">
<path d="M4745 4734 c-16 -8 -74 -68 -128 -133 -54 -66 -106 -127 -115 -137
-9 -11 -73 -84 -141 -164 -68 -80 -135 -158 -150 -175 -42 -48 -203 -236 -245
-285 -21 -25 -118 -137 -215 -249 -236 -274 -364 -423 -500 -583 -62 -73 -130
-151 -150 -173 -20 -22 -74 -85 -121 -140 -159 -190 -197 -223 -286 -250 -62
-19 -126 -19 -188 0 -67 20 -67 21 -336 245 -129 108 -256 208 -282 223 -151
82 -351 54 -486 -68 -56 -50 -81 -98 -365 -686 -52 -107 -76 -145 -109 -173
-55 -47 -105 -61 -167 -46 -51 12 -64 22 -285 215 -186 162 -219 185 -267 185
-83 0 -139 -66 -125 -148 6 -37 95 -234 109 -240 4 -2 7 -8 7 -13 0 -10 44
-105 145 -314 120 -247 224 -462 292 -605 36 -74 98 -202 138 -285 40 -82 91
-189 114 -237 44 -94 95 -155 156 -184 51 -24 187 -24 239 1 83 40 105 73 282
430 137 276 177 349 214 385 69 70 108 85 220 85 131 0 162 -17 299 -165 126
-136 122 -133 186 -167 96 -51 231 -27 307 54 26 28 230 374 224 380 -2 2 -28
-3 -59 -11 -30 -8 -97 -19 -149 -25 -51 -6 -109 -14 -128 -17 -100 -16 -402
-15 -546 1 -207 23 -329 41 -399 59 -155 38 -185 46 -255 70 -124 42 -182 63
-245 91 -33 14 -68 29 -77 32 -36 11 -22 31 65 93 49 36 95 69 102 74 8 6 44
-3 101 -26 196 -78 353 -124 544 -159 58 -11 128 -24 155 -30 28 -5 177 -12
333 -16 289 -6 513 6 616 32 l50 12 199 349 c245 428 380 665 462 809 81 142
315 551 390 680 32 55 63 109 69 120 6 11 20 36 32 55 18 30 57 99 177 310 11
19 54 96 97 170 43 74 86 151 97 170 11 19 72 125 135 235 63 110 117 210 120
223 11 39 -11 91 -45 112 -38 24 -72 25 -112 4z"/>
</g>
</svg>
